<?xml version="1.0" standalone="no"?>
<!DOCTYPE svg PUBLIC "-//W3C//DTD SVG 20010904//EN"
 "http://www.w3.org/TR/2001/REC-SVG-20010904/DTD/svg10.dtd">
<svg version="1.0" xmlns="http://www.w3.org/2000/svg"
 width="101.000000pt" height="101.000000pt" viewBox="0 0 101.000000 101.000000"
 preserveAspectRatio="xMidYMid meet">
<metadata>
Created by potrace 1.14, written by Peter Selinger 2001-2017
</metadata>
<g transform="translate(0.000000,101.000000) scale(0.100000,-0.100000)"
fill="#000000" stroke="none">
<path d="M1 933 c-1 -43 2 -53 19 -58 11 -3 34 1 52 10 45 22 127 95 107 95
-9 0 -24 -9 -35 -21 -25 -28 -91 -61 -112 -57 -11 2 -19 17 -23 43 -6 39 -6
39 -8 -12z"/>
<path d="M32 968 c7 -19 60 -21 83 -4 19 14 16 15 -33 16 -39 0 -53 -4 -50
-12z"/>
<path d="M164 927 c-80 -72 -104 -87 -136 -87 -18 0 -28 -5 -28 -15 0 -20 39
-19 70 2 14 9 50 39 80 66 30 28 69 58 85 69 26 15 27 18 9 18 -11 0 -47 -24
-80 -53z"/>
<path d="M395 953 c60 -41 136 -44 212 -8 37 18 52 30 41 32 -9 2 -32 -4 -50
-13 -45 -23 -135 -24 -168 -1 -13 9 -36 17 -50 17 -23 0 -22 -2 15 -27z"/>
<path d="M652 940 c-95 -69 -187 -73 -288 -14 -75 44 -115 31 -230 -77 -58
-53 -82 -69 -105 -69 -20 0 -29 -5 -29 -16 0 -13 7 -15 33 -10 21 4 54 28 97
70 107 105 156 118 255 66 103 -54 207 -36 309 55 53 47 24 43 -42 -5z"/>
<path d="M687 910 c-69 -54 -97 -70 -133 -76 -65 -9 -130 1 -194 30 -30 14
-66 26 -81 26 -35 0 -110 -50 -150 -100 -36 -45 -75 -70 -109 -70 -11 0 -20
-4 -20 -10 0 -5 16 -10 35 -10 29 0 43 8 80 47 25 26 45 50 45 54 0 17 88 59
122 59 19 0 63 -12 99 -27 77 -31 165 -35 220 -9 20 9 65 41 100 71 35 30 78
61 94 70 29 14 29 15 5 15 -16 0 -57 -26 -113 -70z"/>
<path d="M855 951 c-47 -12 -106 -45 -155 -88 -88 -76 -108 -87 -174 -87 -43
-1 -83 7 -139 28 -60 22 -89 27 -125 23 -48 -5 -72 -25 -143 -118 -23 -30 -32
-34 -73 -34 -54 0 -61 -11 -12 -20 51 -10 72 1 116 60 76 103 120 116 233 69
79 -34 180 -43 224 -20 17 8 60 41 95 71 68 60 145 95 208 95 50 0 70 -8 70
-29 0 -14 -11 -17 -72 -16 -84 0 -148 -25 -204 -82 -94 -93 -155 -104 -296
-53 -134 49 -185 38 -237 -54 -17 -30 -38 -57 -47 -60 -25 -9 -83 -7 -105 4
-10 6 -19 7 -19 2 0 -14 48 -32 88 -32 49 0 75 19 102 76 39 80 100 91 225 40
73 -29 134 -40 175 -31 16 4 66 37 111 75 65 55 92 72 134 81 68 15 148 5 143
-19 -3 -14 -14 -16 -70 -14 -85 5 -136 -17 -202 -86 -80 -83 -137 -89 -283
-31 -122 48 -183 34 -216 -49 -8 -21 -22 -44 -31 -51 -21 -17 -80 -16 -133 3
-24 8 -43 11 -43 6 0 -12 95 -42 134 -42 50 0 74 18 87 63 15 49 51 79 94 79
19 0 75 -16 125 -35 65 -25 108 -35 147 -35 54 0 56 1 122 64 75 73 101 86
174 86 70 0 97 -9 97 -30 0 -16 -7 -17 -59 -13 -101 9 -127 0 -198 -75 -63
-67 -64 -67 -116 -66 -34 1 -84 14 -144 38 -141 55 -186 48 -214 -35 -16 -47
-26 -58 -63 -64 -28 -6 -84 8 -168 40 -10 4 -18 3 -18 -3 0 -5 20 -15 45 -22
56 -16 53 -24 -4 -11 -29 6 -41 6 -41 -3 0 -6 17 -12 37 -14 20 -1 72 -13 115
-27 124 -39 155 -31 165 43 3 23 12 47 19 53 23 19 94 5 185 -36 46 -21 104
-40 129 -43 49 -4 56 0 121 80 33 40 89 63 134 53 14 -3 36 -7 50 -10 17 -4
25 -12 25 -26 0 -15 -5 -19 -17 -15 -83 24 -145 11 -179 -39 -11 -15 -32 -41
-47 -57 -35 -38 -59 -34 -193 28 -136 63 -194 60 -194 -8 0 -75 -38 -84 -167
-43 -79 25 -147 32 -171 16 -16 -9 -15 -102 0 -144 8 -21 7 -34 -2 -52 -14
-26 -9 -42 9 -30 27 16 30 42 11 80 -28 55 -18 54 19 -1 45 -69 38 -104 -21
-104 -15 0 -28 -4 -28 -10 0 -5 18 -10 40 -10 31 0 43 5 55 24 19 28 16 36
-42 120 -33 48 -43 99 -22 112 23 14 88 6 169 -21 132 -44 170 -35 170 40 0
73 47 74 191 4 144 -71 178 -69 219 11 27 53 77 75 144 64 37 -7 52 -14 54
-27 3 -17 -1 -18 -50 -12 -72 9 -101 -4 -126 -57 -11 -24 -27 -50 -36 -57 -26
-22 -87 -7 -163 38 -139 82 -203 87 -203 15 0 -82 -32 -91 -160 -44 -170 63
-234 26 -155 -89 52 -75 59 -100 38 -123 -14 -16 -28 -19 -70 -16 -30 2 -52
-1 -50 -6 2 -5 27 -11 56 -14 57 -4 101 15 101 45 0 9 -21 52 -47 96 -54 93
-51 110 17 115 30 2 74 -8 147 -34 126 -45 136 -42 143 37 5 51 7 54 34 57 36
4 72 -11 163 -66 47 -29 88 -46 117 -49 l44 -5 31 60 c32 63 44 72 94 72 51 0
77 -11 77 -31 0 -16 -6 -18 -45 -12 -57 7 -90 -13 -106 -67 -7 -22 -20 -47
-30 -56 -25 -22 -72 -5 -175 63 -53 35 -96 57 -122 60 -46 6 -49 1 -54 -82 -3
-35 -6 -40 -29 -43 -14 -2 -61 14 -105 34 -122 57 -204 57 -204 0 0 -11 18
-50 40 -86 65 -106 52 -137 -55 -127 -71 7 -95 2 -95 -19 0 -10 6 -11 23 -5
13 5 53 7 90 4 106 -9 124 27 63 128 -43 72 -51 96 -36 114 23 28 88 18 193
-32 118 -55 130 -52 137 28 5 54 5 54 40 57 30 2 52 -8 134 -63 143 -95 164
-97 196 -12 25 65 37 77 75 77 46 0 65 -9 65 -30 0 -16 -6 -18 -34 -13 -45 7
-80 -26 -89 -85 -14 -82 -56 -76 -192 27 -122 93 -162 92 -167 -2 -3 -48 -5
-52 -30 -55 -19 -2 -48 9 -87 33 -125 77 -211 86 -211 21 0 -12 16 -53 37 -92
32 -62 36 -76 27 -100 l-10 -29 -84 3 c-105 4 -123 -6 -114 -61 l7 -37 488 0
489 0 0 459 0 458 -37 7 c-46 7 -78 6 -118 -3z m103 -237 c12 -4 22 -14 22
-24 0 -15 -8 -17 -70 -12 -90 6 -122 -7 -171 -74 -59 -80 -77 -81 -236 -13
-62 26 -107 39 -138 39 -43 0 -47 -2 -61 -35 -7 -19 -14 -43 -14 -54 0 -43
-66 -49 -160 -16 -33 12 -31 12 32 7 80 -6 91 1 107 63 20 78 65 84 210 25
103 -42 172 -51 204 -27 9 6 28 27 41 45 45 61 83 82 150 82 34 0 71 -3 84 -6z
m-272 -399 c114 -88 139 -98 166 -65 10 12 18 31 18 42 0 30 28 76 50 83 30 9
60 -4 60 -26 0 -13 -7 -19 -24 -19 -34 0 -52 -21 -66 -79 -6 -28 -18 -55 -26
-62 -20 -17 -62 5 -139 71 -76 66 -114 90 -142 90 -24 0 -31 -15 -35 -85 -3
-35 -6 -40 -28 -43 -15 -2 -42 8 -63 23 -44 29 -57 32 -34 8 8 -10 15 -22 15
-27 -1 -15 101 -123 122 -129 28 -7 50 27 50 78 0 23 6 49 13 59 13 17 15 17
45 2 46 -24 165 -150 146 -154 -9 -2 -23 7 -32 20 -32 48 -94 99 -115 96 -18
-2 -24 -14 -32 -58 l-10 -55 -44 -3 c-38 -3 -47 0 -67 25 -13 15 -23 22 -24
14 0 -8 -14 -1 -35 18 -54 47 -68 42 -91 -29 l-12 -35 -1 56 c-2 90 26 101 94
38 25 -23 45 -37 45 -32 0 6 -20 29 -45 52 -37 34 -52 42 -78 39 l-32 -3 1
-72 c0 -40 -2 -71 -4 -68 -6 5 -31 125 -32 147 0 31 35 41 77 21 57 -26 60
-26 33 -4 -15 12 -19 21 -11 21 11 0 11 3 1 15 -7 8 -17 15 -22 15 -6 0 -4 -8
3 -17 12 -15 12 -16 -6 -8 -41 17 -71 17 -85 0 -11 -14 -11 -27 3 -88 20 -82
21 -107 7 -107 -5 0 -7 7 -3 16 3 8 -7 54 -22 101 -32 99 -28 118 26 117 19 0
43 -4 53 -9 14 -6 17 -5 12 3 -11 17 -81 35 -110 28 -33 -8 -35 -48 -4 -114
12 -26 22 -67 22 -92 l1 -45 -118 -1 c-101 -1 -115 1 -105 13 10 12 29 13 99
8 81 -7 88 -6 98 13 17 32 14 51 -25 133 -20 43 -34 85 -31 94 17 42 75 31
187 -35 105 -63 134 -64 138 -5 7 113 31 115 168 10z m-9 -38 c28 -23 75 -61
103 -84 55 -46 93 -54 108 -25 5 9 15 39 21 67 13 51 24 65 54 65 25 0 23 -47
-3 -55 -18 -6 -23 -18 -44 -105 -17 -73 -48 -65 -152 37 -128 125 -157 131
-169 36 -12 -98 -29 -104 -104 -37 -60 54 -61 67 -3 29 33 -22 44 -25 61 -15
16 8 21 20 21 55 0 89 27 98 107 32z m299 -92 c-3 -19 -9 -51 -12 -70 -4 -21
-12 -35 -21 -35 -15 0 -12 41 9 108 13 44 32 42 24 -3z m-231 -65 c29 -30 35
-40 22 -40 -10 0 -28 7 -41 15 -21 14 -25 14 -39 0 -9 -8 -22 -15 -30 -15 -12
0 -13 7 -5 40 8 31 15 40 32 40 12 0 39 -18 61 -40z m-291 -1 c14 -11 26 -24
26 -28 0 -4 -22 -8 -50 -8 -41 -1 -50 3 -50 16 0 20 19 41 36 41 6 0 23 -9 38
-21z m56 -30 c0 -6 -4 -7 -10 -4 -5 3 -10 11 -10 16 0 6 5 7 10 4 6 -3 10 -11
10 -16z"/>
</g>
</svg>
